<svg width="10" height="19" viewBox="0 0 10 19" fill="none" xmlns="http://www.w3.org/2000/svg">
<path d="M6.17684 19H3.35538C2.8841 19 2.50074 18.5866 2.50074 18.0784V11.2154H0.854639C0.383364 11.2154 0 10.8019 0 10.2938V7.35302C0 6.8448 0.383364 6.43137 0.854639 6.43137H2.50074V4.95874C2.50074 3.49857 2.92591 2.25628 3.73014 1.36638C4.538 0.47242 5.66699 0 6.99505 0L9.14684 0.0037689C9.61731 0.00463867 10 0.41806 10 0.925415V3.65585C10 4.16408 9.61677 4.5775 9.14563 4.5775L7.69686 4.57808C7.25502 4.57808 7.14251 4.67361 7.11845 4.70289C7.0788 4.75145 7.03162 4.88873 7.03162 5.26779V6.43123H9.03675C9.1877 6.43123 9.33395 6.47138 9.45963 6.54705C9.73076 6.71042 9.89932 7.01933 9.89932 7.35316L9.89824 10.2939C9.89824 10.8019 9.51488 11.2153 9.04361 11.2153H7.03162V18.0784C7.03162 18.5866 6.64812 19 6.17684 19ZM3.53362 17.8861H5.9986V10.7168C5.9986 10.3774 6.25467 10.1014 6.56921 10.1014H8.86537L8.86631 7.54523H6.56908C6.25454 7.54523 5.9986 7.26923 5.9986 6.92989V5.26779C5.9986 4.83263 6.0396 4.33774 6.34419 3.96577C6.71223 3.51611 7.29225 3.46422 7.69659 3.46422L8.96712 3.46364V1.11734L6.99425 1.11386C4.85994 1.11386 3.53362 2.58722 3.53362 4.95874V6.92989C3.53362 7.26909 3.27768 7.54523 2.96314 7.54523H1.03288V10.1014H2.96314C3.27768 10.1014 3.53362 10.3774 3.53362 10.7168V17.8861ZM9.14482 1.11763H9.14496H9.14482Z" fill="white"/>
</svg>
