<svg width="19" height="20" viewBox="0 0 19 20" fill="none" xmlns="http://www.w3.org/2000/svg">
<path d="M16.4286 4.85714C14.3014 4.85714 12.5714 3.12721 12.5714 1H10V13.2143C10 14.9873 8.55871 16.4286 6.78571 16.4286C5.01271 16.4286 3.57143 14.9873 3.57143 13.2143C3.57143 11.4413 5.01271 10 6.78571 10C7.00686 10 7.22029 10.0225 7.42857 10.0656V7.4665C7.21771 7.44336 7.00429 7.42857 6.78571 7.42857C3.59393 7.42857 1 10.0225 1 13.2143C1 16.4061 3.59393 19 6.78571 19C9.9775 19 12.5714 16.4061 12.5714 13.2143V6.13C13.6489 6.94129 14.9796 7.42857 16.4286 7.42857C16.8631 7.42857 17.2926 7.38357 17.7143 7.2955V4.62121C17.2996 4.76907 16.8683 4.85714 16.4286 4.85714Z" stroke="white" stroke-miterlimit="10" stroke-linecap="round" stroke-linejoin="round"/>
</svg>
