<svg width="21" height="17" viewBox="0 0 21 17" fill="none" xmlns="http://www.w3.org/2000/svg">
<path d="M13.7321 7.7415L9.09276 5.20304C8.826 5.05708 8.5107 5.06253 8.24923 5.21745C7.98759 5.37254 7.83154 5.64651 7.83154 5.9506V10.984C7.83154 11.2866 7.98663 11.5601 8.2465 11.7153C8.38221 11.7964 8.53265 11.8371 8.68341 11.8371C8.82152 11.8371 8.95994 11.803 9.08732 11.7344L13.7269 9.23968C14.0023 9.09148 14.1742 8.80517 14.1755 8.49227C14.1766 8.17937 14.0068 7.89178 13.7321 7.7415ZM9.06216 10.3508V6.5889L12.5296 8.48618L9.06216 10.3508Z" fill="white"/>
<path d="M20.8454 4.48181L20.8444 4.47219C20.8266 4.30316 20.6496 2.7997 19.9187 2.03499C19.0739 1.13553 18.1161 1.02627 17.6555 0.973875C17.6174 0.969549 17.5824 0.965544 17.5512 0.961378L17.5145 0.957533C14.7383 0.755661 10.5456 0.728104 10.5036 0.727943L10.4999 0.727783L10.4962 0.727943C10.4543 0.728104 6.26156 0.755661 3.46035 0.957533L3.42334 0.961378C3.39354 0.965384 3.36069 0.969069 3.32496 0.973234C2.86963 1.02579 1.92211 1.13521 1.07489 2.06719C0.378751 2.82373 0.177519 4.29499 0.156852 4.46034L0.154448 4.48181C0.1482 4.55214 0 6.22656 0 7.90755V9.47894C0 11.1599 0.1482 12.8343 0.154448 12.9048L0.15557 12.9154C0.173354 13.0817 0.350232 14.5576 1.07777 15.3227C1.87212 16.192 2.87652 16.307 3.41677 16.3689C3.50216 16.3786 3.5757 16.387 3.62585 16.3958L3.6744 16.4025C5.27736 16.555 10.3032 16.6302 10.5163 16.6332L10.5227 16.6334L10.5291 16.6332C10.5711 16.6331 14.7636 16.6055 17.5398 16.4036L17.5765 16.3998C17.6116 16.3952 17.651 16.391 17.6943 16.3865C18.147 16.3384 19.0894 16.2386 19.9249 15.3193C20.6211 14.5626 20.8225 13.0913 20.843 12.9262L20.8454 12.9047C20.8516 12.8342 21 11.1599 21 9.47894V7.90755C20.9998 6.22656 20.8516 4.5523 20.8454 4.48181ZM19.7692 9.47894C19.7692 11.0348 19.6334 12.6371 19.6205 12.7842C19.5683 13.1894 19.356 14.1202 19.0168 14.4889C18.4939 15.0642 17.9567 15.1213 17.5645 15.1628C17.5171 15.1677 17.4732 15.1725 17.4334 15.1775C14.7482 15.3717 10.7138 15.4015 10.528 15.4026C10.3195 15.3996 5.36724 15.3238 3.81314 15.1794C3.73352 15.1665 3.64748 15.1565 3.5568 15.1463C3.09682 15.0936 2.46717 15.0215 1.98299 14.4889L1.97162 14.4767C1.63837 14.1295 1.43217 13.2591 1.37978 12.789C1.37001 12.6778 1.23062 11.0566 1.23062 9.47894V7.90755C1.23062 6.35345 1.36616 4.75289 1.3793 4.60277C1.44162 4.12549 1.65792 3.25103 1.98299 2.89759C2.52196 2.30479 3.09025 2.2391 3.46611 2.19568C3.502 2.19152 3.53549 2.18767 3.56641 2.18367C6.29072 1.98852 10.3541 1.95952 10.4999 1.9584C10.6457 1.95936 14.7077 1.98852 17.4078 2.18367C17.441 2.18783 17.4772 2.192 17.5161 2.19648C17.9027 2.24054 18.487 2.30719 19.0233 2.87916L19.0282 2.88445C19.3615 3.23164 19.5677 4.11731 19.6201 4.59684C19.6294 4.70178 19.7692 6.32653 19.7692 7.90755V9.47894Z" fill="white"/>
</svg>
